<svg xmlns="http://www.w3.org/2000/svg" aria-hidden="true" style="position:absolute;width:0;height:0;overflow:hidden">
  <defs>
    <symbol id="icon-personblack" viewBox="0 0 32 32">
      <path d="M16 16c2.947 0 5.333-2.387 5.333-5.333S18.946 5.334 16 5.334c-2.947 0-5.333 2.387-5.333 5.333S13.054 16 16 16zm0 2.667c-3.56 0-10.667 1.787-10.667 5.333v1.333c0 .733.6 1.333 1.333 1.333h18.667c.733 0 1.333-.6 1.333-1.333V24c0-3.547-7.107-5.333-10.667-5.333z"/>
    </symbol>
    <symbol id="icon-emailblack" viewBox="0 0 24 32">
      <path d="M20 8H4c-1.1 0-1.99.9-1.99 2L2 22c0 1.1.9 2 2 2h16c1.1 0 2-.9 2-2V10c0-1.1-.9-2-2-2zm-.4 4.25-7.07 4.42c-.32.2-.74.2-1.06 0L4.4 12.25a.85.85 0 1 1 .9-1.44L12 15l6.7-4.19a.85.85 0 1 1 .9 1.44z"/>
    </symbol>
    <symbol id="icon-phone-black" viewBox="0 0 26 32">
      <path d="m19.355 17.065-2.262-.258a1.775 1.775 0 0 0-1.461.508l-1.639 1.639a13.402 13.402 0 0 1-5.87-5.87l1.648-1.648c.383-.383.57-.917.508-1.461l-.258-2.245a1.783 1.783 0 0 0-1.772-1.577H6.708c-1.006 0-1.844.837-1.781 1.844.472 7.606 6.555 13.681 14.153 14.153 1.007.062 1.844-.775 1.844-1.781v-1.541a1.765 1.765 0 0 0-1.567-1.764z"/>
    </symbol>
  </defs>
</svg>
